<mxfile host="Electron" agent="Mozilla/5.0 (Windows NT 10.0; Win64; x64) AppleWebKit/537.36 (KHTML, like Gecko) draw.io/27.0.9 Chrome/134.0.6998.205 Electron/35.4.0 Safari/537.36" version="27.0.9">
  <diagram name="Página-1" id="zQjjP_EeiTSpy_okXXAl">
    <mxGraphModel dx="864" dy="661" grid="1" gridSize="10" guides="1" tooltips="1" connect="1" arrows="1" fold="1" page="1" pageScale="1" pageWidth="827" pageHeight="1169" math="0" shadow="0">
      <root>
        <mxCell id="0" />
        <mxCell id="1" parent="0" />
        <mxCell id="GvrnwKf9UwjYo0hT_rnX-71" value="ALUMNO" style="whiteSpace=wrap;html=1;align=center;fillColor=#f0a30a;strokeColor=#BD7000;fontColor=#000000;" parent="1" vertex="1">
          <mxGeometry x="570" y="395" width="100" height="40" as="geometry" />
        </mxCell>
        <mxCell id="GvrnwKf9UwjYo0hT_rnX-73" value="" style="endArrow=none;html=1;rounded=0;exitX=1;exitY=0.75;exitDx=0;exitDy=0;" parent="1" source="GvrnwKf9UwjYo0hT_rnX-71" target="GvrnwKf9UwjYo0hT_rnX-74" edge="1">
          <mxGeometry relative="1" as="geometry">
            <mxPoint x="670" y="410" as="sourcePoint" />
            <mxPoint x="730" y="410" as="targetPoint" />
          </mxGeometry>
        </mxCell>
        <mxCell id="GvrnwKf9UwjYo0hT_rnX-74" value="Nombre" style="ellipse;whiteSpace=wrap;html=1;align=center;" parent="1" vertex="1">
          <mxGeometry x="690" y="420" width="50" height="30" as="geometry" />
        </mxCell>
        <mxCell id="GvrnwKf9UwjYo0hT_rnX-76" value="" style="endArrow=none;html=1;rounded=0;" parent="1" source="GvrnwKf9UwjYo0hT_rnX-71" target="GvrnwKf9UwjYo0hT_rnX-77" edge="1">
          <mxGeometry x="735" y="395" width="50" height="30" as="geometry" />
        </mxCell>
        <mxCell id="GvrnwKf9UwjYo0hT_rnX-77" value="FechaNacimiento" style="ellipse;whiteSpace=wrap;html=1;align=center;" parent="1" vertex="1">
          <mxGeometry x="690" y="320" width="50" height="30" as="geometry" />
        </mxCell>
        <mxCell id="GvrnwKf9UwjYo0hT_rnX-79" style="edgeStyle=orthogonalEdgeStyle;rounded=0;orthogonalLoop=1;jettySize=auto;html=1;exitX=0.5;exitY=1;exitDx=0;exitDy=0;" parent="1" source="GvrnwKf9UwjYo0hT_rnX-74" target="GvrnwKf9UwjYo0hT_rnX-74" edge="1">
          <mxGeometry relative="1" as="geometry" />
        </mxCell>
        <mxCell id="GvrnwKf9UwjYo0hT_rnX-80" value="" style="endArrow=none;html=1;rounded=0;exitX=0.32;exitY=0.075;exitDx=0;exitDy=0;exitPerimeter=0;" parent="1" source="GvrnwKf9UwjYo0hT_rnX-71" target="GvrnwKf9UwjYo0hT_rnX-81" edge="1">
          <mxGeometry relative="1" as="geometry">
            <mxPoint x="527.5" y="365" as="sourcePoint" />
            <mxPoint x="587.5" y="365" as="targetPoint" />
          </mxGeometry>
        </mxCell>
        <mxCell id="GvrnwKf9UwjYo0hT_rnX-81" value="Teléfono" style="ellipse;whiteSpace=wrap;html=1;align=center;" parent="1" vertex="1">
          <mxGeometry x="620" y="290" width="50" height="30" as="geometry" />
        </mxCell>
        <mxCell id="GvrnwKf9UwjYo0hT_rnX-85" value="" style="endArrow=none;html=1;rounded=0;" parent="1" source="GvrnwKf9UwjYo0hT_rnX-71" target="GvrnwKf9UwjYo0hT_rnX-86" edge="1">
          <mxGeometry relative="1" as="geometry">
            <mxPoint x="603" y="525" as="sourcePoint" />
            <mxPoint x="663" y="525" as="targetPoint" />
          </mxGeometry>
        </mxCell>
        <mxCell id="GvrnwKf9UwjYo0hT_rnX-86" value="&lt;u&gt;Núm_Matrícula&lt;/u&gt;" style="ellipse;whiteSpace=wrap;html=1;align=center;" parent="1" vertex="1">
          <mxGeometry x="638" y="510" width="50" height="30" as="geometry" />
        </mxCell>
        <mxCell id="GvrnwKf9UwjYo0hT_rnX-107" value="PROFESOR" style="whiteSpace=wrap;html=1;align=center;fillColor=#f0a30a;strokeColor=#BD7000;fontColor=#000000;" parent="1" vertex="1">
          <mxGeometry x="205" y="400" width="100" height="40" as="geometry" />
        </mxCell>
        <mxCell id="GvrnwKf9UwjYo0hT_rnX-108" value="" style="endArrow=none;html=1;rounded=0;exitX=1;exitY=0.75;exitDx=0;exitDy=0;" parent="1" source="GvrnwKf9UwjYo0hT_rnX-107" target="GvrnwKf9UwjYo0hT_rnX-109" edge="1">
          <mxGeometry relative="1" as="geometry">
            <mxPoint x="210" y="390" as="sourcePoint" />
            <mxPoint x="270" y="390" as="targetPoint" />
          </mxGeometry>
        </mxCell>
        <mxCell id="GvrnwKf9UwjYo0hT_rnX-109" value="NIF_P" style="ellipse;whiteSpace=wrap;html=1;align=center;" parent="1" vertex="1">
          <mxGeometry x="290" y="280" width="50" height="30" as="geometry" />
        </mxCell>
        <mxCell id="GvrnwKf9UwjYo0hT_rnX-110" value="" style="endArrow=none;html=1;rounded=0;" parent="1" source="GvrnwKf9UwjYo0hT_rnX-107" target="GvrnwKf9UwjYo0hT_rnX-111" edge="1">
          <mxGeometry x="735" y="395" width="50" height="30" as="geometry" />
        </mxCell>
        <mxCell id="GvrnwKf9UwjYo0hT_rnX-111" value="Nombre" style="ellipse;whiteSpace=wrap;html=1;align=center;" parent="1" vertex="1">
          <mxGeometry x="230" y="290" width="50" height="30" as="geometry" />
        </mxCell>
        <mxCell id="GvrnwKf9UwjYo0hT_rnX-112" style="edgeStyle=orthogonalEdgeStyle;rounded=0;orthogonalLoop=1;jettySize=auto;html=1;exitX=0.5;exitY=1;exitDx=0;exitDy=0;" parent="1" source="GvrnwKf9UwjYo0hT_rnX-109" target="GvrnwKf9UwjYo0hT_rnX-109" edge="1">
          <mxGeometry relative="1" as="geometry" />
        </mxCell>
        <mxCell id="GvrnwKf9UwjYo0hT_rnX-113" value="" style="endArrow=none;html=1;rounded=0;exitX=0.32;exitY=0.075;exitDx=0;exitDy=0;exitPerimeter=0;" parent="1" source="GvrnwKf9UwjYo0hT_rnX-107" target="GvrnwKf9UwjYo0hT_rnX-114" edge="1">
          <mxGeometry relative="1" as="geometry">
            <mxPoint x="67.5" y="345" as="sourcePoint" />
            <mxPoint x="127.5" y="345" as="targetPoint" />
          </mxGeometry>
        </mxCell>
        <mxCell id="GvrnwKf9UwjYo0hT_rnX-114" value="Especialidad" style="ellipse;whiteSpace=wrap;html=1;align=center;" parent="1" vertex="1">
          <mxGeometry x="160" y="270" width="50" height="30" as="geometry" />
        </mxCell>
        <mxCell id="GvrnwKf9UwjYo0hT_rnX-115" value="" style="endArrow=none;html=1;rounded=0;" parent="1" source="GvrnwKf9UwjYo0hT_rnX-107" target="GvrnwKf9UwjYo0hT_rnX-116" edge="1">
          <mxGeometry relative="1" as="geometry">
            <mxPoint x="143" y="505" as="sourcePoint" />
            <mxPoint x="203" y="505" as="targetPoint" />
          </mxGeometry>
        </mxCell>
        <mxCell id="GvrnwKf9UwjYo0hT_rnX-116" value="&lt;u&gt;Id_P&lt;/u&gt;" style="ellipse;whiteSpace=wrap;html=1;align=center;" parent="1" vertex="1">
          <mxGeometry x="178" y="490" width="50" height="30" as="geometry" />
        </mxCell>
        <mxCell id="GvrnwKf9UwjYo0hT_rnX-117" value="ASIGNATURA" style="whiteSpace=wrap;html=1;align=center;fillColor=#f0a30a;strokeColor=#BD7000;fontColor=#000000;" parent="1" vertex="1">
          <mxGeometry x="350" y="610" width="100" height="40" as="geometry" />
        </mxCell>
        <mxCell id="GvrnwKf9UwjYo0hT_rnX-118" value="" style="endArrow=none;html=1;rounded=0;exitX=1;exitY=0.75;exitDx=0;exitDy=0;" parent="1" source="GvrnwKf9UwjYo0hT_rnX-117" target="GvrnwKf9UwjYo0hT_rnX-119" edge="1">
          <mxGeometry relative="1" as="geometry">
            <mxPoint x="460" y="660" as="sourcePoint" />
            <mxPoint x="520" y="660" as="targetPoint" />
          </mxGeometry>
        </mxCell>
        <mxCell id="GvrnwKf9UwjYo0hT_rnX-119" value="Nombre" style="ellipse;whiteSpace=wrap;html=1;align=center;" parent="1" vertex="1">
          <mxGeometry x="480" y="670" width="50" height="30" as="geometry" />
        </mxCell>
        <mxCell id="GvrnwKf9UwjYo0hT_rnX-122" style="edgeStyle=orthogonalEdgeStyle;rounded=0;orthogonalLoop=1;jettySize=auto;html=1;exitX=0.5;exitY=1;exitDx=0;exitDy=0;" parent="1" source="GvrnwKf9UwjYo0hT_rnX-119" target="GvrnwKf9UwjYo0hT_rnX-119" edge="1">
          <mxGeometry relative="1" as="geometry" />
        </mxCell>
        <mxCell id="GvrnwKf9UwjYo0hT_rnX-125" value="" style="endArrow=none;html=1;rounded=0;" parent="1" source="GvrnwKf9UwjYo0hT_rnX-117" target="GvrnwKf9UwjYo0hT_rnX-126" edge="1">
          <mxGeometry relative="1" as="geometry">
            <mxPoint x="393" y="775" as="sourcePoint" />
            <mxPoint x="453" y="775" as="targetPoint" />
          </mxGeometry>
        </mxCell>
        <mxCell id="GvrnwKf9UwjYo0hT_rnX-126" value="&lt;u&gt;Código_asignatura&lt;/u&gt;" style="ellipse;whiteSpace=wrap;html=1;align=center;" parent="1" vertex="1">
          <mxGeometry x="428" y="760" width="50" height="30" as="geometry" />
        </mxCell>
        <mxCell id="GvrnwKf9UwjYo0hT_rnX-128" value="" style="endArrow=none;html=1;rounded=0;" parent="1" source="GvrnwKf9UwjYo0hT_rnX-107" target="GvrnwKf9UwjYo0hT_rnX-129" edge="1">
          <mxGeometry relative="1" as="geometry">
            <mxPoint x="178" y="395" as="sourcePoint" />
            <mxPoint x="93" y="410" as="targetPoint" />
          </mxGeometry>
        </mxCell>
        <mxCell id="GvrnwKf9UwjYo0hT_rnX-129" value="Teléfono" style="ellipse;whiteSpace=wrap;html=1;align=center;" parent="1" vertex="1">
          <mxGeometry x="90" y="405" width="50" height="30" as="geometry" />
        </mxCell>
        <mxCell id="GvrnwKf9UwjYo0hT_rnX-130" value="matricula" style="shape=rhombus;perimeter=rhombusPerimeter;whiteSpace=wrap;html=1;align=center;fillColor=#76608a;fontColor=#ffffff;strokeColor=#432D57;rotation=-50;" parent="1" vertex="1">
          <mxGeometry x="450" y="520" width="90" height="40" as="geometry" />
        </mxCell>
        <mxCell id="GvrnwKf9UwjYo0hT_rnX-131" value="" style="endArrow=none;html=1;rounded=0;exitX=0;exitY=0.5;exitDx=0;exitDy=0;entryX=0.69;entryY=0.05;entryDx=0;entryDy=0;entryPerimeter=0;" parent="1" source="GvrnwKf9UwjYo0hT_rnX-130" target="GvrnwKf9UwjYo0hT_rnX-117" edge="1">
          <mxGeometry relative="1" as="geometry">
            <mxPoint x="427" y="510" as="sourcePoint" />
            <mxPoint x="380" y="540" as="targetPoint" />
          </mxGeometry>
        </mxCell>
        <mxCell id="GvrnwKf9UwjYo0hT_rnX-132" value="(1,N)" style="resizable=0;html=1;whiteSpace=wrap;align=right;verticalAlign=bottom;" parent="GvrnwKf9UwjYo0hT_rnX-131" connectable="0" vertex="1">
          <mxGeometry x="1" relative="1" as="geometry">
            <mxPoint x="34" as="offset" />
          </mxGeometry>
        </mxCell>
        <mxCell id="GvrnwKf9UwjYo0hT_rnX-133" value="" style="endArrow=none;html=1;rounded=0;exitX=1;exitY=0.5;exitDx=0;exitDy=0;entryX=0.25;entryY=1;entryDx=0;entryDy=0;" parent="1" source="GvrnwKf9UwjYo0hT_rnX-130" target="GvrnwKf9UwjYo0hT_rnX-71" edge="1">
          <mxGeometry relative="1" as="geometry">
            <mxPoint x="427" y="510" as="sourcePoint" />
            <mxPoint x="600" y="540" as="targetPoint" />
          </mxGeometry>
        </mxCell>
        <mxCell id="GvrnwKf9UwjYo0hT_rnX-134" value="(10,M)" style="resizable=0;html=1;whiteSpace=wrap;align=right;verticalAlign=bottom;" parent="GvrnwKf9UwjYo0hT_rnX-133" connectable="0" vertex="1">
          <mxGeometry x="1" relative="1" as="geometry">
            <mxPoint as="offset" />
          </mxGeometry>
        </mxCell>
        <mxCell id="GvrnwKf9UwjYo0hT_rnX-136" value="imparte" style="shape=rhombus;perimeter=rhombusPerimeter;whiteSpace=wrap;html=1;align=center;fillColor=#76608a;fontColor=#ffffff;strokeColor=#432D57;rotation=50;" parent="1" vertex="1">
          <mxGeometry x="290" y="510" width="90" height="40" as="geometry" />
        </mxCell>
        <mxCell id="GvrnwKf9UwjYo0hT_rnX-137" value="" style="endArrow=none;html=1;rounded=0;exitX=0;exitY=0.5;exitDx=0;exitDy=0;" parent="1" source="GvrnwKf9UwjYo0hT_rnX-136" edge="1">
          <mxGeometry relative="1" as="geometry">
            <mxPoint x="337" y="495" as="sourcePoint" />
            <mxPoint x="290" y="430" as="targetPoint" />
          </mxGeometry>
        </mxCell>
        <mxCell id="GvrnwKf9UwjYo0hT_rnX-138" value="(1,1)" style="resizable=0;html=1;whiteSpace=wrap;align=right;verticalAlign=bottom;" parent="GvrnwKf9UwjYo0hT_rnX-137" connectable="0" vertex="1">
          <mxGeometry x="1" relative="1" as="geometry">
            <mxPoint x="34" as="offset" />
          </mxGeometry>
        </mxCell>
        <mxCell id="GvrnwKf9UwjYo0hT_rnX-139" value="" style="endArrow=none;html=1;rounded=0;exitX=1;exitY=0.5;exitDx=0;exitDy=0;" parent="1" source="GvrnwKf9UwjYo0hT_rnX-136" target="GvrnwKf9UwjYo0hT_rnX-117" edge="1">
          <mxGeometry relative="1" as="geometry">
            <mxPoint x="337" y="495" as="sourcePoint" />
            <mxPoint x="510" y="525" as="targetPoint" />
          </mxGeometry>
        </mxCell>
        <mxCell id="GvrnwKf9UwjYo0hT_rnX-140" value="(1,N)" style="resizable=0;html=1;whiteSpace=wrap;align=right;verticalAlign=bottom;" parent="GvrnwKf9UwjYo0hT_rnX-139" connectable="0" vertex="1">
          <mxGeometry x="1" relative="1" as="geometry">
            <mxPoint as="offset" />
          </mxGeometry>
        </mxCell>
        <mxCell id="rV9lE2lUZBvbqEXT8xqo-1" value="" style="endArrow=none;html=1;rounded=0;exitX=0.5;exitY=1;exitDx=0;exitDy=0;" parent="1" source="GvrnwKf9UwjYo0hT_rnX-130" target="rV9lE2lUZBvbqEXT8xqo-2" edge="1">
          <mxGeometry relative="1" as="geometry">
            <mxPoint x="535.278219500284" y="534.9983516901673" as="sourcePoint" />
            <mxPoint x="765.7299999999999" y="618.08" as="targetPoint" />
          </mxGeometry>
        </mxCell>
        <mxCell id="rV9lE2lUZBvbqEXT8xqo-2" value="Curso_Escolar" style="ellipse;whiteSpace=wrap;html=1;align=center;" parent="1" vertex="1">
          <mxGeometry x="579.9999999999999" y="570" width="50" height="30" as="geometry" />
        </mxCell>
      </root>
    </mxGraphModel>
  </diagram>
</mxfile>
